<?xml version="1.0" encoding="UTF-8"?>
<svg width="600px" height="400px" viewBox="0 0 600 400" version="1.1" xmlns="http://www.w3.org/2000/svg" xmlns:xlink="http://www.w3.org/1999/xlink">
    <defs>
        <linearGradient id="womanGradient" x1="0%" y1="0%" x2="100%" y2="100%">
            <stop offset="0%" style="stop-color:#ff7c9c;stop-opacity:1" />
            <stop offset="100%" style="stop-color:#e54771;stop-opacity:1" />
        </linearGradient>
        <linearGradient id="manGradient" x1="0%" y1="0%" x2="100%" y2="100%">
            <stop offset="0%" style="stop-color:#6c63ff;stop-opacity:1" />
            <stop offset="100%" style="stop-color:#4946b4;stop-opacity:1" />
        </linearGradient>
        <filter id="shadow" x="-20%" y="-20%" width="140%" height="140%">
            <feDropShadow dx="0" dy="5" stdDeviation="8" flood-color="#000000" flood-opacity="0.2"/>
        </filter>
        <filter id="glow" height="300%" width="300%" x="-100%" y="-100%">
            <feGaussianBlur stdDeviation="3" result="blur" />
            <feColorMatrix in="blur" mode="matrix" values="1 0 0 0 0  0 1 0 0 0  0 0 1 0 0  0 0 0 18 -7" result="glow" />
            <feBlend in="SourceGraphic" in2="glow" mode="normal" />
        </filter>
    </defs>
    
    <g stroke="none" stroke-width="1" fill="none" fill-rule="evenodd">
        <!-- Background elements -->
        <circle cx="300" cy="200" r="180" fill="#f8f9fa" opacity="0.3" />
        
        <g transform="translate(50, 20)">
            <!-- Woman Figure -->
            <g transform="translate(50, 40)">
                <!-- Hair -->
                <path d="M140,90 C180,30 240,50 240,100 C240,150 200,170 180,170 C160,170 120,160 110,130 C100,100 100,150 140,90" fill="#8B4513" filter="url(#shadow)"/>
                <!-- Face -->
                <circle cx="170" cy="130" r="60" fill="#FFD1BA" filter="url(#shadow)"/>
                <!-- Eyes -->
                <ellipse cx="150" cy="120" rx="5" ry="7" fill="#34495E"/>
                <ellipse cx="190" cy="120" rx="5" ry="7" fill="#34495E"/>
                <!-- Smile -->
                <path d="M150,150 Q170,170 190,150" stroke="#34495E" stroke-width="2" fill="none"/>
                <!-- Body -->
                <path d="M170,190 C170,190 120,210 100,290 C100,290 110,320 170,320 C230,320 240,290 240,290 C220,210 170,190 170,190" fill="url(#womanGradient)" filter="url(#shadow)"/>
                <!-- Arms -->
                <path d="M120,230 C80,250 60,280 60,280" stroke="#FFD1BA" stroke-width="20" stroke-linecap="round" filter="url(#shadow)"/>
                <path d="M220,230 C260,250 270,290 270,290" stroke="#FFD1BA" stroke-width="20" stroke-linecap="round" filter="url(#shadow)"/>
                <!-- Highlights -->
                <circle cx="150" cy="95" r="8" fill="white" opacity="0.3"/>
                <circle cx="200" cy="110" r="5" fill="white" opacity="0.3"/>
            </g>
            
            <!-- Man Figure -->
            <g transform="translate(250, 50)">
                <!-- Hair -->
                <path d="M140,80 C180,30 230,40 230,90 C230,140 200,150 180,150 C160,150 130,140 120,110 C110,80 100,130 140,80" fill="#34495E" filter="url(#shadow)"/>
                <!-- Face -->
                <circle cx="170" cy="120" r="60" fill="#F5CBA7" filter="url(#shadow)"/>
                <!-- Eyes -->
                <ellipse cx="150" cy="110" rx="5" ry="7" fill="#34495E"/>
                <ellipse cx="190" cy="110" rx="5" ry="7" fill="#34495E"/>
                <!-- Smile -->
                <path d="M150,140 Q170,160 190,140" stroke="#34495E" stroke-width="2" fill="none"/>
                <!-- Body -->
                <path d="M170,180 C170,180 120,200 100,280 C100,280 110,310 170,310 C230,310 240,280 240,280 C220,200 170,180 170,180" fill="url(#manGradient)" filter="url(#shadow)"/>
                <!-- Arms -->
                <path d="M130,220 C90,210 65,250 65,250" stroke="#F5CBA7" stroke-width="20" stroke-linecap="round" filter="url(#shadow)"/>
                <path d="M210,220 C250,210 270,270 270,270" stroke="#F5CBA7" stroke-width="20" stroke-linecap="round" filter="url(#shadow)"/>
                <!-- Highlights -->
                <circle cx="150" cy="90" r="8" fill="white" opacity="0.3"/>
                <circle cx="200" cy="100" r="5" fill="white" opacity="0.3"/>
            </g>
            
            <!-- Hearts with animation -->
            <g transform="translate(220, 110)" filter="url(#glow)">
                <path d="M10,20 Q0,0 10,5 Q20,0 10,20" fill="#FF5E84" transform="rotate(-10)">
                    <animate attributeName="opacity" values="0.8;1;0.8" dur="2s" repeatCount="indefinite"/>
                </path>
            </g>
            <g transform="translate(250, 70)" filter="url(#glow)">
                <path d="M15,30 Q0,0 15,7.5 Q30,0 15,30" fill="#FF5E84" transform="rotate(10)">
                    <animate attributeName="opacity" values="0.7;1;0.7" dur="3s" repeatCount="indefinite"/>
                </path>
            </g>
            <g transform="translate(190, 90)" filter="url(#glow)">                <path d="M7,14 Q0,0 7,3.5 Q14,0 7,14" fill="#FF5E84" transform="rotate(-5)">
                    <animate attributeName="opacity" values="0.9;1;0.9" dur="2.5s" repeatCount="indefinite"/>
                </path>
            </g>
            <g transform="translate(215, 160)" filter="url(#glow)">
                <path d="M20,40 Q0,0 20,10 Q40,0 20,40" fill="#FF5E84">
                    <animate attributeName="opacity" values="0.7;0.9;0.7" dur="4s" repeatCount="indefinite"/>
                    <animate attributeName="transform" values="scale(1);scale(1.05);scale(1)" dur="4s" repeatCount="indefinite"/>
                </path>
            </g>
            
            <!-- Connection line -->
            <path d="M175,250 C210,275 240,275 275,250" stroke="white" stroke-width="3" stroke-linecap="round" stroke-dasharray="0,8" opacity="0.7"/>
            
            <!-- Stats -->
            <g transform="translate(180, 360)">
                <rect x="0" y="0" width="140" height="30" rx="15" fill="white" opacity="0.8"/>
                <text x="70" y="20" font-family="Arial" font-size="12" font-weight="bold" text-anchor="middle" fill="#333">10,000+ HAPPY MATCHES</text>
            </g>
        </g>
    </g>
</svg>
        </g>
    </g>
</svg>
